<?xml version="1.0" encoding="UTF-8"?>
<!DOCTYPE svg PUBLIC "-//W3C//DTD SVG 1.1//EN" "http://www.w3.org/Graphics/SVG/1.1/DTD/svg11.dtd">
<svg version="1.1" xmlns="http://www.w3.org/2000/svg" xmlns:xlink="http://www.w3.org/1999/xlink" x="0" y="0" width="20" height="20" viewBox="0, 0, 20, 20">
  <g id="レイヤー_1">
    <path d="M11.933,13.069 C11.933,13.069 18.992,7.975 18.209,2.145 C18.192,2.018 18.15,1.932 18.097,1.877 C18.043,1.822 17.96,1.779 17.834,1.762 C12.137,0.961 7.16,8.184 7.16,8.184 C2.842,7.667 3.156,8.528 1.186,13.26 C0.809,14.162 1.42,14.473 2.09,14.219 C2.76,13.967 4.238,13.408 4.238,13.408 L6.828,16.056 C6.828,16.056 6.282,17.57 6.035,18.255 C5.788,18.94 6.09,19.566 6.973,19.181 C11.597,17.165 12.439,17.487 11.933,13.069 z M12.942,7.153 C12.344,6.54 12.344,5.549 12.942,4.936 C13.54,4.325 14.509,4.325 15.108,4.936 C15.707,5.547 15.706,6.539 15.108,7.153 C14.509,7.764 13.539,7.764 12.942,7.153 z" fill="#E74A35"/>
  </g>
</svg>
